# xmcd
#
# Track frame offsets: 
#        150
#        14280
#        35494
#        52280
#        71707
#        88940
#        110827
#        119405
#        135491
#        148989
#        166757
#        181339
#        202144
#        226930
#        241607
#
# Disc length: 3568 seconds
#
# Revision: 0
# Processed by: cddbd v1.5.2PL0 Copyright (c) Steve Scherf et al.
# Submitted via: ExactAudioCopy v1.3
#
DISCID=dd0dee0f
DTITLE=Wentus Blues Band With Duke Robillard - Too Much Mustard!
DYEAR=2019
DGENRE=Blues
TTITLE0=Stayed at The Party
TTITLE1=2:19
TTITLE2=Judgement Day
TTITLE3=First We Take Manhattan
TTITLE4=She's a Killer Hot Blonde
TTITLE5=Right in Your Arms
TTITLE6=Too Much Mustard
TTITLE7=She Made My Mind
TTITLE8=I Hear You Knockin'
TTITLE9=Miranda
TTITLE10=You Got My Love
TTITLE11=Selma
TTITLE12=Feels so Bad
TTITLE13=Where Have All the Songbirds Gone
TTITLE14=Passionate Kiss
EXTD=
EXTT0=
EXTT1=
EXTT2=
EXTT3=
EXTT4=
EXTT5=
EXTT6=
EXTT7=
EXTT8=
EXTT9=
EXTT10=
EXTT11=
EXTT12=
EXTT13=
EXTT14=
PLAYORDER=
